<svg xmlns="http://www.w3.org/2000/svg" width="666.667" height="666.667" viewBox="0 0 500 500"><path d="M234.5 111c-23.2 3-49 13.9-67.3 28.6-35.5 28.4-54.7 70.2-52.9 114.9.9 21.9 5.3 39 14.8 57.8 15.5 30.8 44.6 56.6 75.9 67.5 10.7 3.7 14 4.5 14 3.4 0-.5-3.7-2.1-8.2-3.6-34-11-64.2-37.1-80.3-69.6-5.2-10.4-9.4-22.6-12.1-35-2.8-12.9-2.5-39.9.5-54 11.8-53.9 52.7-94.5 107.1-106.1 13.4-2.9 39-3.2 51.4-.6 7.4 1.6 9.8 1.6 8.3.1-2.9-3-37-5.2-51.2-3.4M327 137.9c0 1 .7 2.4 1.5 3.1s1.5 1.9 1.5 2.6c0 2-3.7 1.7-4.9-.4-.6-.9-1.1-1.2-1.1-.7 0 1.8 2.3 3.5 4.7 3.5 2.7 0 3-2 .7-5.5-.9-1.3-1.3-2.9-.9-3.5.3-.5.1-1-.4-1-.6 0-1.1.8-1.1 1.9M330.1 136.3c.2.1 1.5 1.1 2.9 2.2l2.5 2-1.9-2.3c-1.1-1.2-2.4-2.2-2.9-2.2q-.9 0-.6.3M343.5 153c-2.1 2.2-3.4 4-2.9 4 .6 0 2.1-1.1 3.4-2.5 2.2-2.4 2.5-2.4 3.1-.8.6 1.3.8.9.8-1.5.1-1.7 0-3.2-.2-3.2s-2.1 1.8-4.2 4M349.9 157.6l-2.4 2.6-.6-2.4c-.6-2-.7-1.8-.8.9-.1 3.9.8 4.1 3.6 1 4.1-4.5 4.3-6.5.2-2.1M359.4 171.3c-2 1.8-2.5 2.9-2 4.5 2 6.1 10.5 4 10.6-2.5 0-2.1-2.5-4.3-4.9-4.3-.5 0-2.2 1-3.7 2.3m7 .9c2.2 3.6-3.9 8.2-6.9 5.2-2-2-1.9-3 .6-5.5 2.3-2.3 4.7-2.2 6.3.3M278.3 193.8c-2.9 5.3-7.8 14.3-10.8 19.9-3.5 6.3-5.1 10.3-4.3 10.3.7 0 6-8.6 11.8-19.2 12.2-22.3 11.5-20.8 9.8-20.8-.7 0-3.7 4.4-6.5 9.8"/><path d="M205.7 188.7c-.3.5-1.7 6.9-3.2 14.3-1.4 7.4-2.9 14.3-3.1 15.2-.4 1.2 0 1.8 1 1.8.9 0 1.6-.2 1.6-.3 0-.2 1.4-7.1 3-15.2 1.7-8.1 3-15.2 3-15.7 0-1-1.7-1.1-2.3-.1M375.3 189.7c-.8.3-1.3 2.1-1.3 4.4 0 4.7-2.3 5.4-3.8 1.1-.6-1.5-1.1-2.1-1.1-1.4-.2 2.4 1.9 5.2 3.9 5.2 1.6 0 2-.7 2-3.8 0-2.1.3-4.2.7-4.5 1-1.1 3.3 1.4 3.3 3.6 0 1.1.3 1.8.6 1.4 1-.9-.4-5.4-1.8-5.9-.7-.3-1.9-.3-2.5-.1M181.5 191.1c-4.2 1.6-7.5 4.8-9.6 9.4-4.8 10.3.8 19.5 11.8 19.5 5.1 0 10.5-2.9 11.3-6 1.8-7.1 1.9-9 .5-9-.8 0-1.7 1.5-2.1 3.7-1 5.6-2.1 7.1-5.9 8.2-7.2 2-14.5-2.7-14.5-9.3 0-4.4 2.9-9.7 6.9-12.3 4.2-2.9 12.5-3.2 15.3-.6 1.2 1.1 2.2 1.3 2.8.7 3.3-3.3-10-6.6-16.5-4.3M287.7 204.5c-5.4 8-9.7 14.7-9.7 15s.6.5 1.4.5c.7 0 2.5-1.8 4-4l2.6-4h16.8l.9 3.7c.5 2.2 1.6 3.9 2.5 4.1 1.3.3 1.1-1.6-1.7-12-1.7-6.8-3.5-13.5-3.9-15.1-.3-1.5-1.2-2.7-2-2.7-.7 0-5.6 6.5-10.9 14.5m12.7-2.3c.9 3.7 1.6 7 1.6 7.3s-3.1.5-7 .5c-3.8 0-7-.3-7-.6 0-1.6 9.4-15.4 10-14.7.4.4 1.5 3.8 2.4 7.5M315.5 191.2c-.7 1.9-5.5 25.9-5.5 27.4 0 .8.6 1.4 1.4 1.4s1.6-1.5 2-3.8c.5-3.5 2-5.5 6.7-9 1.4-1 2.3-.2 6.3 5.8 2.5 3.8 5.3 7 6.2 7 1.8 0 2.1.7-5.4-10.8l-3.5-5.2 4.4-3.8c9.2-7.8 11.5-10.1 9.7-10.2-.9 0-6.4 4.1-12.2 9-5.8 5-10.6 8.5-10.6 7.8.1-.7.7-4 1.5-7.3s1.5-6.8 1.5-7.8c0-2-1.8-2.3-2.5-.5M214.1 199.3c-4.1 2.1-6.6 6.4-6.6 11.4 0 3.7.5 4.9 2.8 6.9 5.2 4.4 13.2 2.8 17.4-3.5 3.7-5.5 2.6-12.7-2.4-15-3.2-1.4-8.2-1.4-11.2.2M225 202c3.9 3.9 1.6 12.9-3.8 14.8-9.3 3.2-14.8-5.7-8.1-13.3 3.7-4.2 8.6-4.8 11.9-1.5M233.4 208.7c1.5 7.4 2.6 10.9 3.6 11.1 1 .1 3.3-3 6.5-8.7 2.8-4.9 5.3-8.4 5.6-7.8.4.7 1 3 1.3 5.2 1.3 7.6 2.7 11.5 4 11.5.7 0 2.7-2.6 4.4-5.8 1.7-3.1 4.5-8.1 6.2-11 2.3-3.8 2.7-5.2 1.6-5.2-.8 0-3.6 3.8-6.1 8.5-2.6 4.7-5 8.7-5.4 9-.5.2-1.1-1.3-1.5-3.5-1.5-9.6-2.8-14-4.1-14-.8 0-3.2 3.3-5.4 7.2-2.2 4-4.6 8.2-5.4 9.2-1.3 1.8-1.4 1.6-2.1-2.3-1.5-9.4-2.8-14.1-4-14.1-1 0-.8 2.5.8 10.7M383.2 211.2c-.7.7-1.2 2.5-1.2 4.1 0 3.9-3.2 3.3-4.1-.8-.6-2.7-.7-2.8-.8-.5-.2 6.1 5 7 5.9 1C383.7 210.3 386.3 210.3 387.1 215c.6 3.5.6 3.5.8.4.1-2.7-1.3-5.4-2.9-5.4-.3 0-1.1.5-1.8 1.2M391.2 234c0 1.4.2 1.9.5 1.2.2-.6.2-1.8 0-2.5-.3-.6-.5-.1-.5 1.3M381.2 235c0 1.4.2 1.9.5 1.2.2-.6.2-1.8 0-2.5-.3-.6-.5-.1-.5 1.3M386.2 235c0 1.4.2 1.9.5 1.2.2-.6.2-1.8 0-2.5-.3-.6-.5-.1-.5 1.3M388.1 238.1c-2.4.5-4.8.6-5.2.3-.5-.3-.9 0-.9.6 0 .8 1.5 1 5.3.5 2.8-.4 5.4-.9 5.6-1.1 1-.9-.7-1-4.8-.3M392 256.9c0 1.7-.8 2.1-5.2 2.4l-5.3.3 5.8.2c5.5.2 5.7.1 5.7-2.3 0-1.4-.2-2.5-.5-2.5s-.5.9-.5 1.9M200.5 280.1c-1.1.4-1.4.8-.7.8.9.1 1.2 2.9 1.2 10.5 0 7.4-.4 10.6-1.2 10.9-.7.3.5.5 2.7.5s3.4-.2 2.8-.5c-.9-.3-1.3-3.6-1.3-11.3 0-6-.3-11.1-.7-11.3-.5-.3-1.7-.1-2.8.4M230 280.1c-1.4.4-1.9.7-1.2.8.9.1 1.2 2.9 1.2 10.5 0 7.4-.4 10.6-1.2 10.9-.7.3.5.5 2.7.5s3.4-.2 2.8-.5c-1.7-.6-1.7-10.5-.1-12.1 1.8-1.8 4.6-1.4 5.8.7 1.4 2.7 1.3 9.4-.2 10.9-.9.9-.4 1.2 2.2 1.2s3.1-.3 2.2-1.2c-.7-.7-1.2-3.7-1.2-6.8s-.5-6.1-1.2-6.8c-1.7-1.7-5.3-1.5-6.9.5-1.2 1.4-1.5 1-1.9-3.8-.5-5.3-.6-5.5-3-4.8M265 280.1c-1.4.4-1.9.7-1.2.8.9.1 1.2 2.9 1.2 10.5 0 7.4-.4 10.6-1.2 10.9-.7.3.5.6 2.7.6s3.5-.3 2.8-.7c-.8-.5-1.3-4.5-1.5-11.8l-.3-11ZM209.5 281.1c-1 1.5.1 2.3 2 1.5.9-.3 1.3-1 1-1.6-.8-1.3-2.2-1.3-3 .1M149.8 281.7c1.6.6 1.7 18.4 0 20.1-.9.9.5 1.2 6.5 1.2h7.7v-2.8c-.1-2.4-.2-2.5-1.4-1-.8 1.2-2.7 1.8-5 1.8H154v-4.5c0-4.1.2-4.5 2.5-4.5 1.3 0 2.9.8 3.4 1.7.9 1.5 1 1.2 1.1-1.7 0-2.6-.3-3.1-1.2-2.2-.7.7-2.2 1.2-3.5 1.2-2.1 0-2.3-.5-2.3-4.5 0-4.4 0-4.5 3.3-4.5 2.5 0 3.7.6 4.5 2.2 1 2.3 1.1 2.3 1.1-.5l.1-2.7-7.2.1c-4 0-6.7.3-6 .6M166.5 288c-.3.5-.1 1 .4 1 1.6 0 1.4 12.7-.1 13.3-.7.3.5.5 2.7.5s3.4-.2 2.8-.5c-.8-.3-1.3-2.5-1.3-5.8 0-5.6 1.5-7.9 4.7-7.3 1.5.3 1.8 1.4 1.8 7.1v6.7l3-.1c1.7 0 2.4-.3 1.8-.6-.8-.3-1.3-2.5-1.3-5.9 0-3.1-.5-6.4-1-7.5-1.3-2.3-5.3-2.5-7.4-.3C171.1 290 171 290 171 288.6c0-1.8-3.5-2.2-4.5-.6"/><path d="M186.8 288.1c-2.1 1.2-2.4 6.4-.5 7.6s1.4 5.6-.8 7.5c-1.6 1.3-1.8 2-.9 3.5 2.9 4.7 12.9 3.4 12.9-1.6 0-2.5-.8-3.2-6.5-5.5-3.1-1.2-3.2-1.4-1.5-2 5.1-1.8 7-3.3 7.3-5.9.2-1.5 1-2.7 1.8-2.7s1.4-.4 1.4-.8c0-1.2-11.2-1.3-13.2-.1m7 3.1c.4 3.5-2.9 5.6-5.2 3.2-1.9-1.9-2-3.6-.4-5.2 2.1-2.1 5.3-1 5.6 2m-.1 12.3c3.1 2.2 1.9 4.5-2.3 4.5-3.6 0-5.1-1.7-4-4.5C188.1 301.6 191 301.6 193.7 303.5M208.9 287.7c0 .5 0 3.7.1 7.2.1 4.4-.3 6.7-1.2 7.2-.8.6.2.8 2.7.8 2.2 0 3.4-.3 2.8-.6-.9-.3-1.3-2.9-1.3-7.9 0-5.9-.3-7.4-1.5-7.4-.8 0-1.5.3-1.6.7M219.2 288.2c-2.1 2.1-1.3 4.6 2.1 6.9 4.1 3 4.8 4 3.5 5.6-1.4 1.8-3.7 1.6-4.4-.2-.9-2.2-2.4-1.8-2.4.5 0 1.6.7 2 3.8 2 7.1 0 8.6-5.3 2.6-9-3.7-2.4-4.3-5.2-1.1-5.8 1.2-.3 2 .4 2.4 1.9.6 2.2.7 2.2 1.3.3.4-1 .6-2.2.3-2.7-.7-1.2-6.8-.8-8.1.5M274.1 288.9c-2.8 2.8-2.8 9.4-.1 12.1 2.1 2.1 8.4 2.8 9.5 1 .4-.6-.5-1-2.3-.8-3.5.2-6.2-1.6-6.2-4.3 0-1.6.8-1.9 4.4-1.9 5.3 0 6.2-1 4.4-4.7-1.7-3.7-6.8-4.3-9.7-1.4m6.9 1c1.7 3.2 1.2 4.1-2.5 4.1-2.7 0-3.5-.4-3.5-1.8 0-3.9 4.2-5.5 6-2.3M287.2 288.2c-2.1 2.1-1.3 4.5 2.5 7.5 2.5 2.1 3.4 3.5 3 4.6-.8 2.2-3.6 2.2-5.3-.1-1.2-1.6-1.3-1.5-1.4.5 0 2 .5 2.3 3.8 2.3 7 0 8.2-4.2 2.5-8.7-2.5-2.1-3.4-3.5-3-4.6.9-2.4 3.2-2.1 4.5.5 1 2.3 1.1 2.3 1.1-.5.1-2.4-.3-2.7-3.2-2.7-1.8 0-3.8.5-4.5 1.2M300.2 288.2c-2.1 2.1-1.3 4.5 2.5 7.5 2.5 2.1 3.4 3.5 3 4.6-.9 2.5-4.4 2.1-5.3-.6-.7-2.1-.7-2.1-1.4-.2-1.1 2.9-.4 3.5 4.1 3.5 3.3 0 4.1-.4 5.1-2.6 1.1-2.4 1-2.9-1.7-5-1.7-1.4-3.6-2.9-4.3-3.5-1.1-1-1.1-1.4.3-2.8 1.5-1.5 1.7-1.5 2.9.1 1.7 2.3 2.6 2.3 2.6-.2 0-1.6-.7-2-3.3-2-1.8 0-3.8.5-4.5 1.2M313.1 289.6c-4.3 5.5-1.1 13.4 5.4 13.4 2.4 0 3.9-.7 5.4-2.6 4.3-5.5 1.1-13.4-5.4-13.4-2.4 0-3.9.7-5.4 2.6m8.1.1c3.3 2.9 1.8 12.3-1.9 12.3-4.7 0-7.3-8.8-3.7-12.4 2-2 3.3-2 5.6.1M328.9 287.7c0 .5 0 3.7.1 7.2.1 4.4-.3 6.7-1.2 7.2-.8.6.2.8 2.7.8 2.2 0 3.4-.3 2.8-.6-1.7-.6-1.7-10.5-.1-12.1 1.8-1.8 4.6-1.4 5.8.7 1.4 2.7 1.3 9.4-.2 10.9-.9.9-.4 1.2 2.2 1.2s3.1-.3 2.2-1.2c-.7-.7-1.2-3.7-1.2-6.8s-.5-6.1-1.2-6.8c-1.7-1.7-4.8-1.5-7 .5C332.1 290.2 332 290.2 332 288.7c0-1.6-2.9-2.5-3.1-1M347.2 288.2c-2.1 2.1-1.3 4.6 2.1 6.9 4.1 3 4.8 4 3.5 5.6-1.4 1.8-3.7 1.6-4.4-.2-.9-2.2-2.4-1.8-2.4.5 0 1.6.7 2 3.8 2 7.1 0 8.6-5.3 2.6-9-3.7-2.4-4.3-5.2-1.1-5.8 1.2-.3 2 .4 2.4 1.9.6 2.2.7 2.2 1.3.3.4-1 .6-2.2.3-2.7-.7-1.2-6.8-.8-8.1.5M373.7 306.6c2.1 1.5 2.2 1.8.7 4.5-1.3 2.5-1.7 2.8-3.5 1.8-1.1-.6-2.3-.8-2.6-.5s1.6 1.5 4.2 2.6 5 1.8 5.3 1.5.1-.5-.4-.5c-2.6-.1-3.5-1.7-2.3-4.4 1.1-2.3 1.7-2.6 4.3-2 4.2.9 3.1 0-2.9-2.5-3.5-1.4-4.3-1.6-2.8-.5M359 327.9c-2.5 4.8.3 7.3 4.4 4 4.2-3.3 6.3-.6 2.4 3.1-1.2 1.1-1.7 2-1 2 .6 0 1.9-1.2 2.8-2.6 1.6-2.3 1.6-2.7.1-4.1C366.3 328.8 365.9 328.8 363.6 330.3c-4.4 3-6.4 1.3-2.9-2.5.9-1 1.1-1.8.5-1.8s-1.6.9-2.2 1.9M347 342.7c0 .5 1.9 2.3 4.3 4.2l4.2 3.4-4-4.1c-4.1-4.4-4.5-4.7-4.5-3.5M333.1 357.5c.8 1.1 2.3 3.2 3.6 4.8l2.2 2.7 2.8-2.6 2.8-2.5-2.8 1.7c-2.7 1.7-2.8 1.7-6.3-2.2-2-2.2-3-3-2.3-1.9M315.7 367.8c-2.2 2.5-2.1 4.8.3 7.2 2.5 2.5 4.1 2.5 7.1.1 2-1.6 2.1-2.1 1-3.5-.7-.9-1.8-1.6-2.3-1.6s-.2.8.7 1.7c1.6 1.6 1.6 1.7-.1 3-2.6 1.9-4.2 1.6-6.1-1.3-2-3.1-1-5.5 2.8-6.5 2.1-.6 2.2-.7.3-.8-1.1-.1-2.8.7-3.7 1.7M299.1 375.7c-.1.6.4 2.4.9 3.9 1.5 3.8.6 4.1-3.4 1-4.9-3.7-5.9-3.3-3.9 1.6 2.2 5.7 3.8 7.4 1.9 2-.8-2.3-1.3-4.2-1-4.2.2 0 2.2 1.2 4.4 2.6 2.2 1.5 4.2 2.5 4.4 2.3s-.5-2.7-1.5-5.4c-.9-2.8-1.8-4.5-1.8-3.8M271.5 385.7c1.3 7.8 2.2 8.5 7 6.2 1.6-.7 1.3-.8-1.1-.3-2.4.4-3.3.1-3.8-1.2-.4-.9-.5-1.8-.4-1.8l2.8-1.4c2.4-1.2 2.4-1.2.1-.6-1.5.4-2.7.1-3.2-.7-1.3-2.1-1.1-2.7 1.4-3.2 1.8-.4 1.8-.4-.6-.6-2.7-.1-2.8 0-2.2 3.6"/></svg>