<?xml version="1.0" standalone="no"?>
<!DOCTYPE svg PUBLIC "-//W3C//DTD SVG 20010904//EN"
 "http://www.w3.org/TR/2001/REC-SVG-20010904/DTD/svg10.dtd">
<svg version="1.0" xmlns="http://www.w3.org/2000/svg"
 width="500.000000pt" height="500.000000pt" viewBox="0 0 500.000000 500.000000"
 preserveAspectRatio="xMidYMid meet">

<g transform="translate(0.000000,500.000000) scale(0.100000,-0.100000)"
fill="#000000" stroke="none">
<path d="M2345 3890 c-232 -30 -490 -139 -673 -286 -355 -284 -547 -702 -529
-1149 9 -219 53 -390 148 -578 155 -308 446 -566 759 -675 107 -37 140 -45
140 -34 0 5 -37 21 -82 36 -340 110 -642 371 -803 696 -52 104 -94 226 -121
350 -28 129 -25 399 5 540 118 539 527 945 1071 1061 134 29 390 32 514 6 74
-16 98 -16 83 -1 -29 30 -370 52 -512 34z"/>
<path d="M3270 3621 c0 -10 7 -24 15 -31 8 -7 15 -19 15 -26 0 -20 -37 -17
-49 4 -6 9 -11 12 -11 7 0 -18 23 -35 47 -35 27 0 30 20 7 55 -9 13 -13 29 -9
35 3 5 1 10 -4 10 -6 0 -11 -8 -11 -19z"/>
<path d="M3301 3637 c2 -1 15 -11 29 -22 l25 -20 -19 23 c-11 12 -24 22 -29
22 -6 0 -8 -1 -6 -3z"/>
<path d="M3435 3470 c-21 -22 -34 -40 -29 -40 6 0 21 11 34 25 22 24 25 24 31
8 6 -13 8 -9 8 15 1 17 0 32 -2 32 -2 0 -21 -18 -42 -40z"/>
<path d="M3499 3424 l-24 -26 -6 24 c-6 20 -7 18 -8 -9 -1 -39 8 -41 36 -10
41 45 43 65 2 21z"/>
<path d="M3594 3287 c-20 -18 -25 -29 -20 -45 20 -61 105 -40 106 25 0 21 -25
43 -49 43 -5 0 -22 -10 -37 -23z m70 -9 c22 -36 -39 -82 -69 -52 -20 20 -19
30 6 55 23 23 47 22 63 -3z"/>
<path d="M2783 3062 c-29 -53 -78 -143 -108 -199 -35 -63 -51 -103 -43 -103 7
0 60 86 118 192 122 223 115 208 98 208 -7 0 -37 -44 -65 -98z"/>
<path d="M2057 3113 c-3 -5 -17 -69 -32 -143 -14 -74 -29 -143 -31 -152 -4
-12 0 -18 10 -18 9 0 16 2 16 3 0 2 14 71 30 152 17 81 30 152 30 157 0 10
-17 11 -23 1z"/>
<path d="M3753 3103 c-8 -3 -13 -21 -13 -44 0 -47 -23 -54 -38 -11 -6 15 -11
21 -11 14 -2 -24 19 -52 39 -52 16 0 20 7 20 38 0 21 3 42 7 45 10 11 33 -14
33 -36 0 -11 3 -18 6 -14 10 9 -4 54 -18 59 -7 3 -19 3 -25 1z"/>
<path d="M1815 3089 c-42 -16 -75 -48 -96 -94 -48 -103 8 -195 118 -195 51 0
105 29 113 60 18 71 19 90 5 90 -8 0 -17 -15 -21 -37 -10 -56 -21 -71 -59 -82
-72 -20 -145 27 -145 93 0 44 29 97 69 123 42 29 125 32 153 6 12 -11 22 -13
28 -7 33 33 -100 66 -165 43z"/>
<path d="M2877 2955 c-54 -80 -97 -147 -97 -150 0 -3 6 -5 14 -5 7 0 25 18 40
40 l26 40 84 0 84 0 9 -37 c5 -22 16 -39 25 -41 13 -3 11 16 -17 120 -17 68
-35 135 -39 151 -3 15 -12 27 -20 27 -7 0 -56 -65 -109 -145z m127 23 c9 -37
16 -70 16 -73 0 -3 -31 -5 -70 -5 -38 0 -70 3 -70 6 0 16 94 154 100 147 4 -4
15 -38 24 -75z"/>
<path d="M3155 3088 c-7 -19 -55 -259 -55 -274 0 -8 6 -14 14 -14 8 0 16 15
20 38 5 35 20 55 67 90 14 10 23 2 63 -58 25 -38 53 -70 62 -70 18 0 21 -7
-54 108 l-35 52 44 38 c92 78 115 101 97 102 -9 0 -64 -41 -122 -90 -58 -50
-106 -85 -106 -78 1 7 7 40 15 73 8 33 15 68 15 78 0 20 -18 23 -25 5z"/>
<path d="M2141 3007 c-41 -21 -66 -64 -66 -114 0 -37 5 -49 28 -69 52 -44 132
-28 174 35 37 55 26 127 -24 150 -32 14 -82 14 -112 -2z m109 -27 c39 -39 16
-129 -38 -148 -93 -32 -148 57 -81 133 37 42 86 48 119 15z"/>
<path d="M2334 2913 c15 -74 26 -109 36 -111 10 -1 33 30 65 87 28 49 53 84
56 78 4 -7 10 -30 13 -52 13 -76 27 -115 40 -115 7 0 27 26 44 58 17 31 45 81
62 110 23 38 27 52 16 52 -8 0 -36 -38 -61 -85 -26 -47 -50 -87 -54 -90 -5 -2
-11 13 -15 35 -15 96 -28 140 -41 140 -8 0 -32 -33 -54 -72 -22 -40 -46 -82
-54 -92 -13 -18 -14 -16 -21 23 -15 94 -28 141 -40 141 -10 0 -8 -25 8 -107z"/>
<path d="M3832 2888 c-7 -7 -12 -25 -12 -41 0 -39 -32 -33 -41 8 -6 27 -7 28
-8 5 -2 -61 50 -70 59 -10 7 47 33 47 41 0 6 -35 6 -35 8 -4 1 27 -13 54 -29
54 -3 0 -11 -5 -18 -12z"/>
<path d="M3912 2660 c0 -14 2 -19 5 -12 2 6 2 18 0 25 -3 6 -5 1 -5 -13z"/>
<path d="M3812 2650 c0 -14 2 -19 5 -12 2 6 2 18 0 25 -3 6 -5 1 -5 -13z"/>
<path d="M3862 2650 c0 -14 2 -19 5 -12 2 6 2 18 0 25 -3 6 -5 1 -5 -13z"/>
<path d="M3881 2619 c-24 -5 -48 -6 -52 -3 -5 3 -9 0 -9 -6 0 -8 15 -10 53 -5
28 4 54 9 56 11 10 9 -7 10 -48 3z"/>
<path d="M3920 2431 c0 -17 -8 -21 -52 -24 l-53 -3 58 -2 c55 -2 57 -1 57 23
0 14 -2 25 -5 25 -3 0 -5 -9 -5 -19z"/>
<path d="M2005 2199 c-11 -4 -14 -8 -7 -8 9 -1 12 -29 12 -105 0 -74 -4 -106
-12 -109 -7 -3 5 -5 27 -5 22 0 34 2 28 5 -9 3 -13 36 -13 113 0 60 -3 111 -7
113 -5 3 -17 1 -28 -4z"/>
<path d="M2300 2199 c-14 -4 -19 -7 -12 -8 9 -1 12 -29 12 -105 0 -74 -4 -106
-12 -109 -7 -3 5 -5 27 -5 22 0 34 2 28 5 -17 6 -17 105 -1 121 18 18 46 14
58 -7 14 -27 13 -94 -2 -109 -9 -9 -4 -12 22 -12 26 0 31 3 22 12 -7 7 -12 37
-12 68 0 31 -5 61 -12 68 -17 17 -53 15 -69 -5 -12 -14 -15 -10 -19 38 -5 53
-6 55 -30 48z"/>
<path d="M2650 2199 c-14 -4 -19 -7 -12 -8 9 -1 12 -29 12 -105 0 -74 -4 -106
-12 -109 -7 -3 5 -6 27 -6 22 0 35 3 28 7 -8 5 -13 45 -15 118 l-3 110 -25 -7z"/>
<path d="M2095 2189 c-10 -15 1 -23 20 -15 9 3 13 10 10 16 -8 13 -22 13 -30
-1z"/>
<path d="M1498 2183 c16 -6 17 -184 0 -201 -9 -9 5 -12 65 -12 l77 0 0 28 c-1
24 -2 25 -14 10 -8 -12 -27 -18 -50 -18 l-36 0 0 45 c0 41 2 45 25 45 13 0 29
-8 34 -17 9 -15 10 -12 11 17 0 26 -3 31 -12 22 -7 -7 -22 -12 -35 -12 -21 0
-23 5 -23 45 0 44 0 45 33 45 25 0 37 -6 45 -22 10 -23 11 -23 11 5 l1 27 -72
-1 c-40 0 -67 -3 -60 -6z"/>
<path d="M1665 2120 c-3 -5 -1 -10 4 -10 16 0 14 -127 -1 -133 -7 -3 5 -5 27
-5 22 0 34 2 28 5 -8 3 -13 25 -13 58 0 56 15 79 47 73 15 -3 18 -14 18 -71
l0 -67 30 1 c17 0 24 3 18 6 -8 3 -13 25 -13 59 0 31 -5 64 -10 75 -13 23 -53
25 -74 3 -15 -14 -16 -14 -16 0 0 18 -35 22 -45 6z"/>
<path d="M1868 2119 c-21 -12 -24 -64 -5 -76 19 -12 14 -56 -8 -75 -16 -13
-18 -20 -9 -35 29 -47 129 -34 129 16 0 25 -8 32 -65 55 -31 12 -32 14 -15 20
51 18 70 33 73 59 2 15 10 27 18 27 8 0 14 4 14 8 0 12 -112 13 -132 1z m70
-31 c4 -35 -29 -56 -52 -32 -19 19 -20 36 -4 52 21 21 53 10 56 -20z m-1 -123
c31 -22 19 -45 -23 -45 -36 0 -51 17 -40 45 7 19 36 19 63 0z"/>
<path d="M2089 2123 c0 -5 0 -37 1 -72 1 -44 -3 -67 -12 -72 -8 -6 2 -8 27 -8
22 0 34 3 28 6 -9 3 -13 29 -13 79 0 59 -3 74 -15 74 -8 0 -15 -3 -16 -7z"/>
<path d="M2192 2118 c-21 -21 -13 -46 21 -69 41 -30 48 -40 35 -56 -14 -18
-37 -16 -44 2 -9 22 -24 18 -24 -5 0 -16 7 -20 38 -20 71 0 86 53 26 90 -37
24 -43 52 -11 58 12 3 20 -4 24 -19 6 -22 7 -22 13 -3 4 10 6 22 3 27 -7 12
-68 8 -81 -5z"/>
<path d="M2741 2111 c-28 -28 -28 -94 -1 -121 21 -21 84 -28 95 -10 4 6 -5 10
-23 8 -35 -2 -62 16 -62 43 0 16 8 19 44 19 53 0 62 10 44 47 -17 37 -68 43
-97 14z m69 -10 c17 -32 12 -41 -25 -41 -27 0 -35 4 -35 18 0 39 42 55 60 23z"/>
<path d="M2872 2118 c-21 -21 -13 -45 25 -75 25 -21 34 -35 30 -46 -8 -22 -36
-22 -53 1 -12 16 -13 15 -14 -5 0 -20 5 -23 38 -23 70 0 82 42 25 87 -25 21
-34 35 -30 46 9 24 32 21 45 -5 10 -23 11 -23 11 5 1 24 -3 27 -32 27 -18 0
-38 -5 -45 -12z"/>
<path d="M3002 2118 c-21 -21 -13 -45 25 -75 25 -21 34 -35 30 -46 -9 -25 -44
-21 -53 6 -7 21 -7 21 -14 2 -11 -29 -4 -35 41 -35 33 0 41 4 51 26 11 24 10
29 -17 50 -17 14 -36 29 -43 35 -11 10 -11 14 3 28 15 15 17 15 29 -1 17 -23
26 -23 26 2 0 16 -7 20 -33 20 -18 0 -38 -5 -45 -12z"/>
<path d="M3131 2104 c-43 -55 -11 -134 54 -134 24 0 39 7 54 26 43 55 11 134
-54 134 -24 0 -39 -7 -54 -26z m81 -1 c33 -29 18 -123 -19 -123 -47 0 -73 88
-37 124 20 20 33 20 56 -1z"/>
<path d="M3289 2123 c0 -5 0 -37 1 -72 1 -44 -3 -67 -12 -72 -8 -6 2 -8 27 -8
22 0 34 3 28 6 -17 6 -17 105 -1 121 18 18 46 14 58 -7 14 -27 13 -94 -2 -109
-9 -9 -4 -12 22 -12 26 0 31 3 22 12 -7 7 -12 37 -12 68 0 31 -5 61 -12 68
-17 17 -48 15 -70 -5 -17 -15 -18 -15 -18 0 0 16 -29 25 -31 10z"/>
<path d="M3472 2118 c-21 -21 -13 -46 21 -69 41 -30 48 -40 35 -56 -14 -18
-37 -16 -44 2 -9 22 -24 18 -24 -5 0 -16 7 -20 38 -20 71 0 86 53 26 90 -37
24 -43 52 -11 58 12 3 20 -4 24 -19 6 -22 7 -22 13 -3 4 10 6 22 3 27 -7 12
-68 8 -81 -5z"/>
<path d="M3737 1934 c21 -15 22 -18 7 -45 -13 -25 -17 -28 -35 -18 -11 6 -23
8 -26 5 -3 -3 16 -15 42 -26 26 -11 50 -18 53 -15 3 3 1 5 -4 5 -26 1 -35 17
-23 44 11 23 17 26 43 20 42 -9 31 0 -29 25 -35 14 -43 16 -28 5z"/>
<path d="M3590 1721 c-25 -48 3 -73 44 -40 42 33 63 6 24 -31 -12 -11 -17 -20
-10 -20 6 0 19 12 28 26 16 23 16 27 1 41 -14 15 -18 15 -41 0 -44 -30 -64
-13 -29 25 9 10 11 18 5 18 -6 0 -16 -9 -22 -19z"/>
<path d="M3470 1573 c0 -5 19 -23 43 -42 l42 -34 -40 41 c-41 44 -45 47 -45
35z"/>
<path d="M3331 1425 c8 -11 23 -32 36 -48 l22 -27 28 26 28 25 -28 -17 c-27
-17 -28 -17 -63 22 -20 22 -30 30 -23 19z"/>
<path d="M3157 1322 c-22 -25 -21 -48 3 -72 25 -25 41 -25 71 -1 20 16 21 21
10 35 -7 9 -18 16 -23 16 -5 0 -2 -8 7 -17 16 -16 16 -17 -1 -30 -26 -19 -42
-16 -61 13 -20 31 -10 55 28 65 21 6 22 7 3 8 -11 1 -28 -7 -37 -17z"/>
<path d="M2991 1243 c-1 -6 4 -24 9 -39 15 -38 6 -41 -34 -10 -49 37 -59 33
-39 -16 22 -57 38 -74 19 -20 -8 23 -13 42 -10 42 2 0 22 -12 44 -26 22 -15
42 -25 44 -23 2 2 -5 27 -15 54 -9 28 -18 45 -18 38z"/>
<path d="M2715 1143 c13 -78 22 -85 70 -62 16 7 13 8 -11 3 -24 -4 -33 -1 -38
12 -4 9 -5 18 -4 18 2 1 14 7 28 14 24 12 24 12 1 6 -15 -4 -27 -1 -32 7 -13
21 -11 27 14 32 18 4 18 4 -6 6 -27 1 -28 0 -22 -36z"/>
</g>
</svg>
